<svg xmlns="http://www.w3.org/2000/svg" width="195.451" height="48.147" viewBox="0 0 195.451 48.147"><defs><style>.a{fill:#ed1c24;}</style></defs><g transform="translate(-0.031)"><path class="a" d="M169.889,48.147H25.564a28.5,28.5,0,0,1-10.458-1.905,24.118,24.118,0,0,1-8.069-5.174A23.43,23.43,0,0,1,0,24.114,24.113,24.113,0,0,1,1.836,14.8,23.2,23.2,0,0,1,7.017,7.129,24.084,24.084,0,0,1,15.054,1.92,28.007,28.007,0,0,1,25.458,0H170a27.988,27.988,0,0,1,10.4,1.92,24.079,24.079,0,0,1,8.035,5.209,23.192,23.192,0,0,1,5.181,7.673,24.116,24.116,0,0,1,1.836,9.312,23.431,23.431,0,0,1-7.036,16.954,24.119,24.119,0,0,1-8.069,5.174A28.493,28.493,0,0,1,169.889,48.147ZM25.61,5.918c-11.527.02-19.577,7.489-19.577,18.164,0,10.692,8.012,18.16,19.484,18.161H169.93c5.8,0,10.737-1.842,14.292-5.327a17.756,17.756,0,0,0,5.195-12.834c0-10.675-8.052-18.144-19.58-18.164Z" transform="translate(0.031 0)"/><path class="a" d="M40.294,26.372h7.067l9.771,15.807,0-15.807h7v22.67h-7l-9.82-15.807V49.041H40.294V26.372Z" transform="translate(-20.877 -13.674)"/><path class="a" d="M164.944,31.216h6.824v3.051h3.69V36.51h-3.69l.007,15.044h-6.831l0-15.044h-3.7V34.274l3.7-.007,0-3.051Z" transform="translate(-83.592 -16.186)"/><path class="a" d="M97.911,42.146h6.817V57.224H97.911Z" transform="translate(-50.753 -21.853)"/><path class="a" d="M97.874,26.357h6.835v4.637H97.874Z" transform="translate(-50.734 -13.667)"/><path class="a" d="M335.274,40.019c-5.5,0-9.962,3.783-9.962,8.459s4.46,8.463,9.962,8.463,9.959-3.79,9.959-8.463-4.453-8.459-9.959-8.459m2.739,8.438s-.007,2.277-.007,3.193c0,2.4-1.416,3.391-2.787,3.391s-2.794-.989-2.794-3.391c0-.916,0-3.252,0-3.252s0-2.225,0-3.138c0-2.4,1.434-3.377,2.787-3.377s2.787.982,2.787,3.377c0,.913,0,2.6.007,3.2v-.007Z" transform="translate(-168.665 -20.751)"/><path class="a" d="M293.292,41.429v-2.7a2.682,2.682,0,1,0-5.342,0V44.1a2.683,2.683,0,1,0,5.342,0Zm-.045-15.058h6.723V49.038h-6.737s0-.732,0-.868a8.231,8.231,0,0,1-7.848.569,8.061,8.061,0,0,1-4.658-7.48,8.189,8.189,0,0,1,8.664-7.89,9.046,9.046,0,0,1,3.86,1.35V26.372Z" transform="translate(-145.545 -13.674)"/><path class="a" d="M132.064,40.7c2.551-.073,7.716,1.593,7.682,7.56-.007,1.066,0,8.206,0,8.206h-6.769v-9.9a3.014,3.014,0,0,0-3.117-2.773,3.137,3.137,0,0,0-3.235,2.773c0,.642.007,9.9.007,9.9h-6.765L119.856,41.4l6.772-.007s-.007,1.211,0,1.586a8.215,8.215,0,0,1,5.436-2.274" transform="translate(-62.132 -21.103)"/><path class="a" d="M247.12,40.7c2.548-.073,7.72,1.593,7.685,7.56-.007,1.066,0,8.206,0,8.206h-6.776v-9.9a3.014,3.014,0,0,0-3.117-2.773,3.133,3.133,0,0,0-3.232,2.773c0,.642.007,9.9.007,9.9h-6.765V41.4l6.765-.007s-.007,1.211,0,1.586A8.192,8.192,0,0,1,247.12,40.7" transform="translate(-121.796 -21.103)"/><path class="a" d="M201.811,50.928s0,.069,0,.916c0,2.756-1.812,3.37-2.819,3.37s-2.853-.614-2.853-3.37c0-.826.007-3.11.007-3.11s12.84.007,12.84-.007c0-4.672-4.512-8.542-10.056-8.542S188.9,43.968,188.9,48.647s4.492,8.459,10.035,8.459c4.6,0,8.487-2.624,9.67-6.185l-6.793.007Zm-5.661-4.547a5.656,5.656,0,0,1,.448-2.954,2.77,2.77,0,0,1,4.79,0,5.692,5.692,0,0,1,.448,2.954Z" transform="translate(-97.932 -20.837)"/><path class="a" d="M367.763,29.111c.663,0,1.257-.042,1.257-.84,0-.639-.58-.753-1.125-.753h-1.062v1.593Zm-.93,2.9h-.781V26.855h1.958c1.222,0,1.826.448,1.826,1.468a1.343,1.343,0,0,1-1.336,1.42l1.465,2.27h-.875l-1.364-2.239h-.892v2.239Z" transform="translate(-189.79 -13.925)"/><path class="a" d="M364.738,31.128a3.729,3.729,0,1,0-3.645-3.742,3.613,3.613,0,0,0,3.645,3.742m-4.54-3.742a4.532,4.532,0,1,1,4.54,4.488,4.463,4.463,0,0,1-4.54-4.488" transform="translate(-186.754 -11.887)"/></g></svg>